<?xml version="1.0" encoding="utf-8"?>
<!-- Generator: Adobe Illustrator 25.3.1, SVG Export Plug-In . SVG Version: 6.00 Build 0)  -->
<svg version="1.1" id="Layer_1" xmlns="http://www.w3.org/2000/svg" xmlns:xlink="http://www.w3.org/1999/xlink" x="0px" y="0px"
	 viewBox="0 0 216 216" style="enable-background:new 0 0 216 216;" xml:space="preserve">
<style type="text/css">
	.st0{fill:#035397;}
</style>
<g>
	<path class="st0" d="M185.1,173.6l-41.4-41.4c10.1-11.6,16.2-26.8,16.2-43.4c0-36.5-29.7-66.2-66.2-66.2S27.6,52.4,27.6,88.9
		c0,36.5,29.7,66.2,66.2,66.2c11.6,0,22.5-3,31.9-8.2l43.1,43.1c2.2,2.2,5.2,3.4,8.1,3.4c2.9,0,5.9-1.1,8.1-3.4
		C189.5,185.4,189.5,178.1,185.1,173.6z M93.7,45.7c23.8,0,43.2,19.4,43.2,43.2c0,23.8-19.3,43.2-43.2,43.2
		c-23.8,0-43.2-19.4-43.2-43.2C50.6,65.1,69.9,45.7,93.7,45.7z"/>
</g>
</svg>
