<?xml version="1.0" encoding="utf-8"?>
<!-- Generator: Adobe Illustrator 25.3.1, SVG Export Plug-In . SVG Version: 6.00 Build 0)  -->
<svg version="1.1" id="Layer_1" xmlns="http://www.w3.org/2000/svg" xmlns:xlink="http://www.w3.org/1999/xlink" x="0px" y="0px"
	 viewBox="0 0 147.9 147.9" style="enable-background:new 0 0 147.9 147.9;" xml:space="preserve">
<style type="text/css">
	.st0{fill:#FAAF40;}
</style>
<g>
	<circle class="st0" cx="73.9" cy="73.5" r="29.9"/>
	<path class="st0" d="M73.9,35.5c-2.1,0-3.8-1.7-3.8-3.8V15.4c0-2.1,1.7-3.8,3.8-3.8c2.1,0,3.8,1.7,3.8,3.8l0,0v16.4
		C77.7,33.8,76,35.5,73.9,35.5L73.9,35.5z"/>
	<path class="st0" d="M73.9,136.3c-2.1,0-3.8-1.7-3.8-3.8l0,0v-16.4c0-2.1,1.7-3.8,3.8-3.8c2.1,0,3.8,1.7,3.8,3.8v16.4
		C77.7,134.6,76,136.3,73.9,136.3L73.9,136.3z"/>
	<path class="st0" d="M132.5,77.7h-16.4c-2.1,0-3.8-1.7-3.8-3.8c0-2.1,1.7-3.8,3.8-3.8h16.4c2.1,0,3.8,1.7,3.8,3.8
		C136.3,76,134.6,77.7,132.5,77.7L132.5,77.7z"/>
	<path class="st0" d="M15.4,77.7h16.4c2.1,0,3.8-1.7,3.8-3.8c0-2.1-1.7-3.8-3.8-3.8H15.4c-2.1,0-3.8,1.7-3.8,3.8
		C11.6,76,13.3,77.7,15.4,77.7L15.4,77.7z"/>
	<path class="st0" d="M44.1,47.9c-1,0-2-0.4-2.7-1.1L29.9,35.2c-1.5-1.5-1.5-3.9,0-5.3s3.9-1.5,5.3,0l11.6,11.6
		c1.5,1.4,1.5,3.8,0.1,5.3C46.1,47.5,45.1,47.9,44.1,47.9z"/>
	<path class="st0" d="M115.3,119.1c-1,0-2-0.4-2.7-1.1l-11.6-11.6c-1.5-1.5-1.5-3.9,0-5.3s3.9-1.5,5.3,0l11.6,11.6
		c1.5,1.5,1.5,3.9,0,5.3C117.3,118.7,116.3,119.1,115.3,119.1L115.3,119.1z"/>
	<path class="st0" d="M32.5,119.1c-2.1,0-3.8-1.7-3.8-3.8c0-1,0.4-1.9,1.1-2.6l11.6-11.6c1.5-1.5,3.9-1.5,5.3,0
		c1.5,1.5,1.5,3.9,0,5.3L35.2,118C34.5,118.7,33.5,119.1,32.5,119.1z"/>
	<path class="st0" d="M103.7,47.9c-2.1,0-3.8-1.7-3.8-3.8c0-1,0.4-1.9,1.1-2.6l11.6-11.6c1.5-1.5,3.9-1.5,5.3,0
		c1.5,1.5,1.5,3.9,0,5.3l-11.6,11.5C105.7,47.5,104.8,47.9,103.7,47.9z"/>
</g>
</svg>
